<?xml version="1.0" encoding="UTF-8"?> <svg xmlns="http://www.w3.org/2000/svg" width="151" height="109" fill="none"><g clip-path="url(#clip0_325_22043)"><path d="M38.555 15.603v12.145h-3.459V15.603h-3.324v-2.938h10.046v2.938h-3.263zm8.937 2.808h6.066v-5.746h3.458v15.083h-3.458v-6.4h-6.066v6.4h-3.459V12.665h3.459v5.746zm21.853-2.808h-5.023v2.94h4.828v2.937h-4.828v3.329h5.023v2.939H60.8V12.665h8.548l-.002 2.938zM38.555 35.19v12.208h4.695v2.938h-8.217V35.19h3.522zm15.46 3.003h-5.022v2.873h4.763v3.003h-4.763v3.33h5.023v2.937H45.47V35.19h8.547l-.002 3.003zm3.458 12.143V35.19h3.065l8.221 9.793V35.19h3.457v15.146h-3.001l-8.22-9.792v9.792h-3.522zm26.941-12.143h-4.892v2.873h4.566v3.003h-4.566v6.267h-3.458V35.19h8.35v3.003zm11.482 0h-5.088v2.873h4.828v3.003h-4.828v3.33h5.089v2.937H87.35V35.19h8.547l-.001 3.003zm11.026.719c-1.111-1.046-2.088-1.112-2.545-1.112-.457 0-1.045.066-1.5.524a1.494 1.494 0 00-.392.979c0 .391.13.653.326.848.392.327.914.457 1.892.85l1.109.456c.653.261 1.5.588 2.088 1.176.914.848 1.109 1.959 1.109 2.807 0 1.567-.523 2.938-1.304 3.721-1.371 1.435-3.262 1.568-4.306 1.568-1.11 0-2.023-.131-3.002-.653-.783-.393-1.63-1.112-2.217-1.632l1.826-2.482c.391.392.979.914 1.434 1.175.588.392 1.175.523 1.892.523.457 0 1.111-.066 1.567-.523.326-.26.521-.653.521-1.24 0-.522-.195-.848-.52-1.111-.394-.325-1.306-.652-1.763-.847l-1.238-.458c-.717-.261-1.502-.588-2.088-1.174-.783-.85-.914-1.894-.914-2.613 0-1.37.39-2.48 1.305-3.395 1.044-1.109 2.347-1.37 3.718-1.37 1.045 0 2.741.197 4.502 1.5l-1.5 2.483zm10.436-.72v12.144h-3.523V38.194h-3.261V35.19h10.046v3.003h-3.262zM35.032 57.78h3.523v15.147h-3.523V57.779zm7.306 15.147V57.779h3.066l8.22 9.792v-9.792h3.458v15.147h-3.067l-8.154-9.793v9.793h-3.523zM68.562 61.5c-1.109-1.044-2.087-1.11-2.544-1.11-.456 0-1.043.066-1.5.523a1.494 1.494 0 00-.391.98c0 .39.13.652.326.848.39.326.914.457 1.892.848l1.108.458c.652.261 1.501.588 2.088 1.174.913.85 1.11 1.959 1.11 2.809 0 1.566-.523 2.937-1.306 3.721-1.37 1.435-3.261 1.566-4.304 1.566-1.111 0-2.023-.13-3.002-.653-.783-.391-1.63-1.11-2.218-1.632l1.827-2.48c.391.39.979.914 1.434 1.174.588.393 1.175.522 1.893.522.456 0 1.109-.064 1.566-.52.326-.262.521-.654.521-1.242 0-.521-.197-.849-.521-1.11-.393-.326-1.305-.652-1.762-.849l-1.24-.456c-.717-.261-1.5-.588-2.087-1.176-.783-.848-.914-1.892-.914-2.611 0-1.37.393-2.48 1.306-3.395 1.043-1.11 2.348-1.37 3.718-1.37 1.043 0 2.74.195 4.502 1.5L68.562 61.5zm10.372-.784v12.21H75.48v-12.21h-3.326V57.78h10.11v2.937h-3.329zm5.48-2.937h3.523v15.147h-3.523V57.779zm12.462 2.937v12.21h-3.523v-12.21H90.09V57.78h10.046v2.937h-3.261zm18.265 6.008c0 1.435-.196 3.264-1.696 4.765-1.434 1.502-3.131 1.698-4.697 1.698-1.566 0-3.262-.196-4.697-1.698-1.5-1.567-1.697-3.33-1.697-4.765V57.78h3.523v8.879c0 .653.066 1.763.783 2.546.588.653 1.435.784 2.088.784.652 0 1.5-.13 2.087-.784.717-.783.783-1.893.783-2.546V57.78h3.523v8.944zm8.937-6.008v12.21h-3.523v-12.21h-3.261V57.78h10.046v2.937h-3.262zm13.96 0h-5.023v2.94h4.828v2.937h-4.828v3.395h5.023v2.938h-8.546V57.779h8.547l-.001 2.937z" fill="#414042"></path><path d="M150.302 89.574V85.2H22.766V.393h-4.434v89.183" fill="#F95346"></path><path d="M150.303 98.714V94.34H13.569V12.666H9.197v86.048" fill="#F95346"></path><path d="M150.302 107.919v-4.374H4.435v-78.67H0v83.044" fill="#F95346"></path></g><defs><clipPath id="clip0_325_22043"><path fill="#fff" d="M0 0h150.156v108.334H0z"></path></clipPath></defs></svg> 