<svg width="145" height="39" viewBox="0 0 145 39" fill="none" xmlns="http://www.w3.org/2000/svg">
<path d="M142.495 29.7161C143.879 29.7161 145 28.5658 145 27.1469C145 25.7279 143.879 24.5776 142.495 24.5776C141.112 24.5776 139.991 25.7279 139.991 27.1469C139.991 28.5658 141.112 29.7161 142.495 29.7161Z" fill="#2BCC96"/>
<path fill-rule="evenodd" clip-rule="evenodd" d="M37.7828 16.409C36.6053 15.5179 35.1079 14.9974 33.4014 14.9974C29.2156 14.9974 26.2269 18.1414 26.2269 22.2522C26.2269 26.3368 29.1816 29.4721 33.4014 29.4809C34.1454 29.4809 34.8508 29.3815 35.5078 29.1952C32.2286 35.054 26.0686 39 19.0101 39C8.51113 39 0 30.2696 0 19.5C0 8.73045 8.51113 0 19.0101 0C28.4837 0 36.3387 7.1083 37.7828 16.409ZM8.21034 25.7881H9.73862V14.1612H8.21034V10.8082H15.2319C21.0224 10.8082 24.3167 14.6315 24.3167 19.9703C24.3167 25.6487 21.0224 29.1324 15.2319 29.1324H8.21034V25.7881ZM15.2319 25.6313C18.5008 25.6313 20.3856 23.4888 20.3856 19.979C20.3856 16.6259 18.5262 14.3528 15.2319 14.3528H13.4999V25.64H15.2319V25.6313ZM33.3929 18.6378C35.3881 18.6378 36.7636 20.1794 36.7636 22.2522C36.7636 24.2901 35.3881 25.8404 33.3929 25.8404C31.3976 25.8404 29.9967 24.2901 29.9967 22.2522C29.9967 20.1794 31.3976 18.6378 33.3929 18.6378Z" fill="#2BCC96"/>
<path d="M41.6035 19.9705C41.6035 14.6056 45.3818 10.4688 50.8411 10.4688C54.925 10.4688 58.3722 12.8551 59.5693 17.2271H55.5109C54.7213 15.285 52.8788 14.2399 50.8411 14.2399C47.7761 14.2399 45.5346 16.7046 45.5346 19.9792C45.5346 23.2801 47.7846 25.7099 50.8411 25.7099C52.777 25.7099 54.6703 24.7432 55.5109 22.7488H59.5693C58.3722 27.147 54.925 29.5072 50.8411 29.5072C45.3818 29.5072 41.6035 25.3616 41.6035 19.9705Z" fill="white"/>
<path d="M61.3438 22.2524C61.3438 18.1416 64.3324 14.9976 68.5182 14.9976C72.7295 14.9976 75.6672 18.1677 75.6672 22.2524C75.6672 26.337 72.704 29.481 68.5182 29.481C64.3069 29.4723 61.3438 26.337 61.3438 22.2524ZM71.8889 22.2524C71.8889 20.1796 70.5134 18.638 68.5182 18.638C66.5229 18.638 65.122 20.1796 65.122 22.2524C65.122 24.2903 66.5229 25.8406 68.5182 25.8406C70.5134 25.8406 71.8889 24.2903 71.8889 22.2524Z" fill="white"/>
<path d="M78.0866 15.3372H81.8139V16.5914H82.0686C82.68 15.703 83.7752 14.9976 85.3375 14.9976C88.1733 14.9976 90.0582 17.1749 90.0582 19.866V29.1327H86.3309V21.094C86.3309 19.7093 85.4139 18.6903 84.1064 18.6903C82.7564 18.6903 81.8054 19.7354 81.8054 21.1289V29.1414H78.0781V15.3372H78.0866Z" fill="white"/>
<path d="M94.3119 24.8649V18.7074H92.0874V15.3282H94.5666V11.5571H98.0392V15.3282H101.614V18.7074H98.0392V24.8387C98.0392 25.4397 98.2685 25.7009 98.8798 25.7009H101.461V29.1324H98.5232C95.8147 29.1324 94.3119 27.8783 94.3119 24.8649Z" fill="white"/>
<path d="M104.161 15.3371H107.837V17.1661H108.092C108.678 15.9903 110.002 14.9888 111.539 14.9888H112.609V18.786H111.225C109.179 18.786 107.854 20.0924 107.854 22.6616V29.1326H104.152V15.3371H104.161Z" fill="white"/>
<path d="M113.747 22.2524C113.747 18.1416 116.735 14.9976 120.921 14.9976C125.132 14.9976 128.07 18.1677 128.07 22.2524C128.07 26.337 125.107 29.481 120.921 29.481C116.71 29.4723 113.747 26.337 113.747 22.2524ZM124.292 22.2524C124.292 20.1796 122.916 18.638 120.921 18.638C118.926 18.638 117.525 20.1796 117.525 22.2524C117.525 24.2903 118.926 25.8406 120.921 25.8406C122.908 25.8406 124.292 24.2903 124.292 22.2524Z" fill="white"/>
<path d="M129.208 25.7359H131.551V12.8985H129.208V9.49316H135.287V25.7272H137.631V29.1325H129.208V25.7359Z" fill="white"/>
</svg>
